<svg xmlns="http://www.w3.org/2000/svg" width="378.607" height="355.154" viewBox="0 0 378.607 355.154">
  <g id="Group_1749" data-name="Group 1749" transform="translate(9964 -4419)">
    <rect id="Rectangle_1078" data-name="Rectangle 1078" width="378.607" height="355.154" transform="translate(-9964 4419)" fill="#6d818b"/>
    <path id="Path_1042" data-name="Path 1042" d="M685.871,508.967l11.8-19.753h3.048s-3.839,5.973-5.439,8.631l-8.3,13.845.316,14.559h-5.482l-.108-14.2-13.814-22.833h5.935Z" transform="translate(-10305.02 4163.435)" fill="#fff"/>
    <path id="Path_1043" data-name="Path 1043" d="M683.007,523.819l.061,2.424H657.44s-.016-6.541-.016-9.636V498.445c0-2.952.016-9.23.016-9.23h5.542s-.231,6.15-.231,9.23v18.3a33.863,33.863,0,0,0,.215,5.024,2.359,2.359,0,0,0,1.19,1.574,9.884,9.884,0,0,0,4.164.557Z" transform="translate(-10318.051 4163.436)" fill="#fff"/>
    <path id="Path_1044" data-name="Path 1044" d="M667.936,523.819l.063,2.424h-25.63s-.016-6.541-.016-9.636V498.445c0-2.952.016-9.23.016-9.23h5.544s-.233,6.15-.233,9.23v18.3a33.367,33.367,0,0,0,.218,5.024,2.345,2.345,0,0,0,1.19,1.574,9.882,9.882,0,0,0,4.164.557Z" transform="translate(-10336.81 4163.436)" fill="#fff"/>
    <path id="Path_1045" data-name="Path 1045" d="M652.6,526.248H627.511s-.009-6.548-.009-9.643v-18.16c0-2.819.009-9.232.009-9.232h21.65l-.016,2.159-16.317.023v14.081l10.761-.043v2.442l-10.761-.02v8.236c0,4.386.283,5.8.844,6.57s2.088,1.163,4.564,1.163H652.47Z" transform="translate(-10355.295 4163.434)" fill="#fff"/>
    <path id="Path_1046" data-name="Path 1046" d="M614.343,506.586l19.59-17.223h3.428l-16.572,14.79L642.9,525.835h-7.62l-18.316-18.3-2.626,2.3-.008,16.251h-5.269L609,489.363h5.3Z" transform="translate(-10378.328 4163.621)" fill="#fff"/>
    <path id="Path_1047" data-name="Path 1047" d="M639.535,552.649l-26.191-34.71v25.7c0,2.126-.025,8.162-.025,8.162h-2.287l-.02-37.031h6.431l21.928,28.977-.139-28.977h2.53l-.123,37.879Z" transform="translate(-10375.82 4195.245)" fill="#fff"/>
    <path id="Path_1048" data-name="Path 1048" d="M684.747,534.523l11.8-19.753H699.6s-3.838,5.973-5.439,8.631l-8.3,13.845.314,14.557H680.7l-.108-14.2L666.769,514.77H672.7Z" transform="translate(-10306.42 4195.245)" fill="#fff"/>
    <path id="Path_1049" data-name="Path 1049" d="M594.651,533.61q0,8.929,3.567,13.412t10.689,4.478a12.063,12.063,0,0,0,9.89-4.478q3.63-4.482,3.63-13.358,0-8.63-3.576-13.228t-10.379-4.6q-6.694,0-10.254,4.494t-3.567,13.284m-6.254-.191q0-8.576,5.733-13.762a20.555,20.555,0,0,1,14.314-5.192,21.04,21.04,0,0,1,14.463,5.136q5.8,5.131,5.8,14.009,0,8.606-5.56,13.931t-14.624,5.322q-8.819,0-14.476-5.322T588.4,533.419" transform="translate(-10403.969 4194.865)" fill="#fff"/>
    <path id="Path_1050" data-name="Path 1050" d="M665.33,552.7H664.1l-11.277-30.534L642.962,552.7h-1.309l-11.881-37.93h5.842l8.186,27.454,8.984-27.454h2.878l10.169,27.686,8.4-27.686h2.34Z" transform="translate(-10352.471 4195.245)" fill="#fff"/>
    <path id="Path_1051" data-name="Path 1051" d="M672.139,537.209l-5.966-14.4-5.883,14.4Zm.465,1.228H659.7l-5.3,13.654h-2.83l15.54-37.554h1.066l15.731,37.554h-5.771Z" transform="translate(-10325.334 4194.956)" fill="#fff"/>
    <path id="Path_1052" data-name="Path 1052" d="M599.352,549.908a17.064,17.064,0,0,1-6.656,1.437,13.311,13.311,0,0,1-10.175-4.4q-4.091-4.4-4.092-12.664,0-8.721,3.747-13.405a12.266,12.266,0,0,1,10.1-4.689,15.875,15.875,0,0,1,9.25,2.848v-1.578c-.559-.317-1.174-.626-1.9-.956a19.423,19.423,0,0,0-8.22-1.693,21.969,21.969,0,0,0-10.088,2.328,16.411,16.411,0,0,0-7.163,7.14,21.416,21.416,0,0,0-2.56,10.244q0,8.293,5.567,13.331t14.341,5.035a19.981,19.981,0,0,0,10.025-2.552v-1.612a12.592,12.592,0,0,1-2.177,1.185" transform="translate(-10424.881 4195.286)" fill="#fff"/>
    <path id="Path_1053" data-name="Path 1053" d="M621.526,483.112q0,8.93,3.564,13.412T635.781,501a12.057,12.057,0,0,0,9.89-4.478q3.633-4.482,3.63-13.358,0-8.63-3.576-13.228t-10.377-4.6q-6.694,0-10.258,4.494t-3.564,13.284m-6.252-.191q0-8.576,5.733-13.762a20.547,20.547,0,0,1,14.314-5.192,21.023,21.023,0,0,1,14.458,5.136q5.8,5.138,5.807,14.009,0,8.606-5.56,13.931T635.4,502.369q-8.822,0-14.476-5.327t-5.652-14.121" transform="translate(-10370.516 4132.01)" fill="#fff"/>
    <path id="Path_1054" data-name="Path 1054" d="M678.439,501.3H653.348s-.009-6.543-.009-9.643V473.5c0-2.822.009-9.228.009-9.228H675l-.016,2.153-16.317.025v14.081l10.761-.043v2.44l-10.761-.018v8.231c0,4.388.283,5.8.844,6.575s2.09,1.161,4.563,1.161h14.234Z" transform="translate(-10323.137 4132.391)" fill="#fff"/>
    <path id="Path_1055" data-name="Path 1055" d="M696.9,502.151l-26.191-34.71v25.7c0,2.13-.022,8.164-.022,8.164H668.4l-.02-37.033h6.431l21.931,28.977-.139-28.977h2.53L699,502.151Z" transform="translate(-10304.42 4132.39)" fill="#fff"/>
    <path id="Path_1056" data-name="Path 1056" d="M603.993,482.484q2.034-.051,4.2-.162a15.529,15.529,0,0,0,3.766-.6,5.883,5.883,0,0,0,4.144-3.87,10.789,10.789,0,0,0,.565-3.742,9.386,9.386,0,0,0-1.935-6.2q-1.936-2.33-8.438-2.328c-.667,0-1.434.034-2.3.108Zm27.7,18.963H624.07c-1.215-1.425-16.817-16.878-17.287-17.215s-.332-.5-1.329-.5H604l-.013,17.715H598.66l.043-37.262c3.495,0,5.944.016,8,.016a30.808,30.808,0,0,1,8.546.977,11.392,11.392,0,0,1,5.322,3.194,7.593,7.593,0,0,1,2.034,5.311,8.217,8.217,0,0,1-2.653,6.148,12.824,12.824,0,0,1-7.3,3.17c12.606,12.164,19.044,18.447,19.044,18.447" transform="translate(-10391.199 4132.282)" fill="#fff"/>
    <path id="Path_1057" data-name="Path 1057" d="M654.775,464.891c-1.879-.846-8.748-3.057-13.854,2.063a8.965,8.965,0,0,0-2.745,6.6,9.921,9.921,0,0,0,1.27,4.889,10.227,10.227,0,0,0,3.535,3.729,50.566,50.566,0,0,0,6.719,3.347,23.219,23.219,0,0,1,6.884,3.987,5.084,5.084,0,0,1,1.432,4.647c-.909,5.7-6.112,6.512-8.712,6.44-3.991-.117-7.414-1.957-9.286-7.434h-2.525c1.136,3.859,4.173,9.612,12.2,9.565,3.533-.02,11.885-2.341,12.7-10.7a8.852,8.852,0,0,0-1.309-5.3,9.683,9.683,0,0,0-3.484-3.592,72.112,72.112,0,0,0-6.95-3.428,26.457,26.457,0,0,1-6.911-4.04,5.667,5.667,0,0,1-1.937-4.343,4.277,4.277,0,0,1,1.457-3.592c4.727-4.157,13.385-1.255,14.64,3.529h2a9.122,9.122,0,0,0-5.124-6.359" transform="translate(-10342.859 4131.659)" fill="#fff"/>
  </g>
</svg>
